<?xml version="1.0" standalone="no"?>
<svg xmlns:xlink="http://www.w3.org/1999/xlink" id="wave" style="transform:rotate(180deg); transition: 0.3s" viewBox="0 0 1440 150" version="1.1" xmlns="http://www.w3.org/2000/svg"><defs><linearGradient id="sw-gradient-0" x1="0" x2="0" y1="1" y2="0"><stop stop-color="rgba(248, 216, 33, 1)" offset="0%"/><stop stop-color="rgba(248, 216, 33, 1)" offset="100%"/></linearGradient></defs><path style="transform:translate(0, 0px); opacity:1" fill="url(#sw-gradient-0)" d="M0,0L10,0C20,0,40,0,60,22.5C80,45,100,90,120,110C140,130,160,125,180,122.5C200,120,220,120,240,120C260,120,280,120,300,107.5C320,95,340,70,360,65C380,60,400,75,420,77.5C440,80,460,70,480,55C500,40,520,20,540,17.5C560,15,580,30,600,47.5C620,65,640,85,660,80C680,75,700,45,720,27.5C740,10,760,5,780,7.5C800,10,820,20,840,30C860,40,880,50,900,50C920,50,940,40,960,32.5C980,25,1000,20,1020,25C1040,30,1060,45,1080,57.5C1100,70,1120,80,1140,80C1160,80,1180,70,1200,70C1220,70,1240,80,1260,90C1280,100,1300,110,1320,97.5C1340,85,1360,50,1380,32.5C1400,15,1420,15,1430,15L1440,15L1440,150L1430,150C1420,150,1400,150,1380,150C1360,150,1340,150,1320,150C1300,150,1280,150,1260,150C1240,150,1220,150,1200,150C1180,150,1160,150,1140,150C1120,150,1100,150,1080,150C1060,150,1040,150,1020,150C1000,150,980,150,960,150C940,150,920,150,900,150C880,150,860,150,840,150C820,150,800,150,780,150C760,150,740,150,720,150C700,150,680,150,660,150C640,150,620,150,600,150C580,150,560,150,540,150C520,150,500,150,480,150C460,150,440,150,420,150C400,150,380,150,360,150C340,150,320,150,300,150C280,150,260,150,240,150C220,150,200,150,180,150C160,150,140,150,120,150C100,150,80,150,60,150C40,150,20,150,10,150L0,150Z"/><defs><linearGradient id="sw-gradient-1" x1="0" x2="0" y1="1" y2="0"><stop stop-color="rgba(67, 105, 65, 1)" offset="0%"/><stop stop-color="rgba(67, 105, 65, 1)" offset="100%"/></linearGradient></defs><path style="transform:translate(0, 50px); opacity:0.9" fill="url(#sw-gradient-1)" d="M0,0L10,7.5C20,15,40,30,60,32.5C80,35,100,25,120,22.5C140,20,160,25,180,30C200,35,220,40,240,55C260,70,280,95,300,102.5C320,110,340,100,360,80C380,60,400,30,420,15C440,0,460,0,480,17.5C500,35,520,70,540,77.5C560,85,580,65,600,47.5C620,30,640,15,660,20C680,25,700,50,720,52.5C740,55,760,35,780,32.5C800,30,820,45,840,57.5C860,70,880,80,900,77.5C920,75,940,60,960,62.5C980,65,1000,85,1020,85C1040,85,1060,65,1080,57.5C1100,50,1120,55,1140,52.5C1160,50,1180,40,1200,35C1220,30,1240,30,1260,40C1280,50,1300,70,1320,75C1340,80,1360,70,1380,75C1400,80,1420,100,1430,110L1440,120L1440,150L1430,150C1420,150,1400,150,1380,150C1360,150,1340,150,1320,150C1300,150,1280,150,1260,150C1240,150,1220,150,1200,150C1180,150,1160,150,1140,150C1120,150,1100,150,1080,150C1060,150,1040,150,1020,150C1000,150,980,150,960,150C940,150,920,150,900,150C880,150,860,150,840,150C820,150,800,150,780,150C760,150,740,150,720,150C700,150,680,150,660,150C640,150,620,150,600,150C580,150,560,150,540,150C520,150,500,150,480,150C460,150,440,150,420,150C400,150,380,150,360,150C340,150,320,150,300,150C280,150,260,150,240,150C220,150,200,150,180,150C160,150,140,150,120,150C100,150,80,150,60,150C40,150,20,150,10,150L0,150Z"/></svg>